<?xml version="1.0" encoding="utf-8"?><svg viewBox="0 0 145 110" xmlns="http://www.w3.org/2000/svg" xmlns:xlink="http://www.w3.org/1999/xlink"><style>:root>svg{display:none}:root>svg:target{display:block}</style><svg fill="none" viewBox="0 0 53 22" id="isart-icon" xmlns="http://www.w3.org/2000/svg"><g clip-path="url(#aa)" fill-rule="evenodd" clip-rule="evenodd" fill="#323648"><path d="M.798 18.19c.01-.086.03-.173.048-.25l.058-.318c.01-.048.01-.105.03-.163.009-.048.018-.087.028-.125.01-.087.029-.173.038-.27.01-.086.039-.173.049-.24 0-.058.086-.549.105-.587 0-.077.116-.8.135-.838.01-.134.058-.288.068-.423.01-.154.067-.356.086-.51.01-.135.048-.308.068-.443a2.28 2.28 0 01.038-.221c.01-.058.029-.116.029-.193.029-.096.038-.279.067-.356.01-.144.048-.289.068-.433.01-.058.019-.096.029-.164.01-.048 0-.086.028-.106 0-.125.049-.25.049-.356.028-.163.067-.337.086-.5l.058-.337c.01-.038.02-.125.029-.164.01-.057.019-.076.019-.134.01-.087.029-.173.048-.26.01-.067.039-.173.039-.231.019-.096.038-.202.048-.289.01-.192.086-.385.086-.587a1.19 1.19 0 00.049-.26c.019-.096.038-.202.048-.289l.086-.529c.01-.038.01-.048.01-.087 0-.019 0-.019.01-.038l.01-.02c0-.144.047-.317.067-.452 0-.057.048-.336.067-.365 0-.125.039-.174.039-.29.01-.047.048-.22.048-.278 0-.068.019-.096.029-.164l.077-.404c0-.125.019-.183.038-.298.01-.039.039-.222.048-.27.01-.087.029-.144.039-.24.01-.068.086-.607.115-.636 0-.086.01-.106.029-.183.01-.067.048-.404.077-.433 0-.106.02-.183.039-.288.019-.097.019-.164.048-.241l.106-.606c0-.077.086-.597.105-.626 0-.087.077-.549.106-.606 0-.068.048-.366.068-.405 0-.086.029-.24.048-.327 0-.058.125-.77.135-.808 0-.135.048-.299.067-.433 0-.077.01-.058.02-.116h20.932l-.096.635c-.02.097.01.039-.038.077l.01.048c-.03.145-.107.78-.155.847.01.087-.077.664-.115.722.01.096-.077.578-.106.693l-.058.327-.183 1.001c.01.068-.077.597-.106.645.01.145-.048.366-.077.52l-.086.51c-.01.02-.01.02-.01.038l-.01.03c.01.076-.01.26-.057.317.01.106-.039.308-.058.414-.02.115-.096.673-.135.722.01.086-.058.548-.106.606.01.048-.038.443-.086.5.019.126-.096.597-.116.77-.029.106-.038.222-.058.328l-.067.336c.01.049-.048.54-.106.616.02.077-.01.26-.057.318.01.087-.02.183-.03.28l-.105.528c.01.068-.02.29-.058.337.01.097-.038.433-.086.5.01.097-.02.203-.039.3-.01.066-.029.24-.067.288.01.058 0 .106-.01.163 0 .03-.01.058-.02.087-.009.058 0 .029-.028.067.01.068 0 .106-.01.164 0 .02-.01.058-.01.077-.009.058 0 .029-.028.068l-.058.452c-.039.115.038-.096-.01.029 0 0-.01.019-.01.01 0 0 0 .009-.009.009.01.058 0 .106-.01.164l-.038.144c.02.077-.048.481-.087.539.01.096-.057.548-.105.606.01.096-.039.453-.087.51.01.077-.01.25-.048.308.01.087-.02.193-.039.29l-.067.423c-.01.067-.048.337-.077.394.019.096-.02.222-.039.327-.019.097-.019.231-.067.299.01.087-.02.183-.029.27-.01.076-.02.192-.058.24.02.115-.048.356-.067.481-.02.125-.02.356-.087.443.01.096-.038.452-.086.51.01.087-.068.568-.106.616.01.115-.058.433-.077.568-.02.144.01.163-.135.173H2.935v-.01c-.578 0-1.155 0-1.723.01H.182c.01-.077.03-.164.049-.25l.077-.5c.01-.04.028-.213.048-.232 0-.058.067-.5.086-.53 0-.067.02-.163.03-.22.21-1.232.047-.164.298-1.79l.028.028zm4.39 1.675H8.44c1.01-4.976 2.358-12.906 3.253-18.113H8.47c.039 1.145-3.128 17.256-3.272 18.123l-.01-.01zm8.141-5.265c-.029.068-.038.193-.048.28-.01.086-.048.192-.048.288 0 .058-.029.135-.038.193-.01.067-.03.154-.039.23-.02.03-.067.328-.067.395-.03.039-.106.53-.106.616l-.106.54c-.02.144-.067.26-.048.442.029.289.279.472.587.424.23-.039.212-.058.366-.145.057-.096.288-.289.27-.443.038-.057.105-.5.115-.567.028-.126.106-.51.096-.607l.01-.029c0-.01.077-.23.057-.365l.03-.097c.009-.029.009-.067.018-.106.01-.067.039-.144.02-.211.01-.02.01 0 .019-.039l.019-.086c.01-.068.01-.068.01-.126.048-.057.067-.317.086-.413.02-.125.087-.395.077-.5l.068-.29c.019-.105.048-.211.038-.307.029-.039.029-.097.02-.154.086-.135-.049-.655-.097-.8-.048-.134-.298-.538-.375-.577-.02-.048-.231-.337-.28-.366-.019-.057 0-.01-.038-.057l-.27-.337-.067-.106c-.086-.106-.49-.635-.53-.645-.018-.067-.182-.26-.24-.327-.048-.058-.211-.289-.25-.308-.02-.039-.25-.366-.289-.385-.048-.116-.134-.221-.202-.337a1.584 1.584 0 01-.096-.183c-.02-.048-.048-.144-.077-.183-.038-.221-.058-.327-.048-.567l.087-.616.144-.809c.029-.135.106-.481.087-.597.048-.067.086-.375.086-.471.039-.048.116-.54.106-.607.067-.105.096-.558.144-.721.02-.135.097-.434.087-.549.02-.02.01 0 .02-.038l.038-.164c.019-.067.048-.144.038-.212.03-.038.02-.02.039-.077l.029-.077c.019-.058.038-.096.038-.163.048-.049.106-.212.135-.29l.154-.288c.048-.029.096-.106.135-.154.048-.067.086-.096.144-.144.048-.039.318-.222.327-.24.087-.03.183-.097.28-.136.096-.038.182-.077.288-.106.222-.067.414-.096.655-.115.683-.02 1.386 0 2.078 0 .665 0 1.29.058 1.646.443.077.077.24.298.289.433.038.115.087.202.115.327a1.921 1.921 0 01.02.664c-.01.077-.03.173-.03.26-.009.087-.038.192-.047.28-.01.095-.03.23-.058.307 0 .067-.029.173-.038.25-.02.097-.039.193-.049.28a2.47 2.47 0 00-.048.288c-.01.068-.029.145-.048.231-.02.096-.038.183-.038.28-.03.086-.039.201-.058.307-.02.125-.039.222-.058.337 0 .067-.038.231-.048.289-.01.058-.01.077-.02.144-.009.048-.028.106-.028.173-.01.068-.029.154-.048.231a1.31 1.31 0 00-.039.26 3.01 3.01 0 01-.048.212l-2.57.01c0-.183.116-.51.106-.684.048-.057.097-.423.087-.51.02-.029.01 0 .02-.048l.076-.51c.058-.067.106-.616.145-.741.019-.135.077-.337.067-.462.038-.058.038-.202.067-.27l.01-.096.029-.125c.077-.375-.068-.703-.462-.703-.318 0-.645.193-.741.462-.02.049-.02.077-.039.116-.02.096-.048.231-.048.327-.02.087-.029.145-.048.24-.02.097-.039.174-.039.28l-.038.144-.029.174c-.02.125-.048.24-.058.356-.029.019-.019.077-.029.125-.01.067-.019.086-.028.144-.01.087-.049.212-.049.298-.019.078-.028.145-.048.241-.019.096-.038.173-.038.28-.03.038-.068.317-.077.413-.01.067-.03.337-.01.404.02.058-.02.02.029.048-.048.135.125.472.202.607.048.077-.01.029.068.067-.01.048-.01.01 0 .048 0 .02.019.039.028.058l.462.626c.039.028-.028 0 .039.028 0 .058.23.328.279.366l.346.404c0 .01-.019.01.03.077l.432.54.241.298c.067.087.038.067.096.096.01.058.145.221.183.289.077.115.145.279.202.308-.019.057-.01.019.02.086.019.03.019.039.038.087l.125.356c.039.144.01.154.058.193-.048.115-.02.288-.02.413-.01.077-.019.097-.019.193-.019.029-.086.5-.086.578-.03.028 0-.01-.02.038 0 .01-.01.067-.01.067-.009.068-.018.106-.018.164-.02.039-.087.433-.087.49a2.22 2.22 0 00-.048.29c-.01.105-.048.202-.048.327-.02.019-.02.067-.03.106-.009.057-.009.086-.018.134-.02.097-.03.203-.048.29 0 .095-.049.23-.049.346a1.121 1.121 0 00-.048.279c-.019.135-.057.27-.067.414-.02.048-.068.336-.068.413-.028.02-.028.097-.028.135-.01.068-.02.096-.03.164-.018.115-.047.24-.057.356a1.37 1.37 0 00-.048.212 1.91 1.91 0 00-.058.25l-.163.462c-.087.212-.193.337-.232.433-.019.01-.134.173-.163.212l-.087.105-.106.116c-.077.106-.385.327-.529.385-.077.029-.144.048-.221.096-.087.01-.424.125-.732.135l-.856.02c-.164 0-.27.018-.414.018H11.99c-.105 0-.125-.019-.221-.019-.048 0-.183-.029-.24-.038-.04-.01-.068-.01-.116-.02s-.067-.028-.125-.028c-.337-.077-.433-.193-.607-.318-.028-.02-.01-.01-.028-.02-.03-.047 0-.009-.039-.057-.01-.02-.02-.02-.029-.038l-.327-.616c-.01-.087-.039-.164-.048-.25-.01-.097.01-.183-.01-.27.03-.058.068-.5.077-.606.02-.154.096-.472.087-.597a.76.76 0 00.058-.327l.01-.03s.086-.317.067-.442c.038-.048.134-.616.125-.702l.038-.145c.01-.067.03-.106.01-.164l.019-.057c0-.01.01-.048.01-.058.01-.038.01-.077.019-.115.01-.077.038-.164.029-.241.048-.067.096-.385.086-.481.039-.058.116-.597.135-.712.058-.049 1.213-.02 1.28-.02h1.31l-.097.568-.039.222c-.019.105-.057.211-.057.327h-.039zm19.154-6.236l.077 1.213c.01.067.01.115.01.211 0 .097.018.106.018.203 0 .269.048.548.048.827l.03.395c.019.144.019.279.019.423 0 .116.028.28.038.395l.029.597c0 .096.02.115.02.202l.047.828c0 .096.02.105.02.202 0 .24.028.356.028.616l.039.413h-1.713l.317-1.636c.048-.279.116-.539.164-.818.02-.135.048-.26.077-.404.029-.145.058-.27.077-.414l.318-1.636c.057-.27.096-.549.163-.818l.116-.607c.01-.038.01-.048.019-.105l.029-.106.01.019zm9.278 2.868h-1.666c-.067 0-.038-.058-.038-.135l.192-3.05c0-.097.02-.107.02-.193l.057-1.02c.01-.068.01-.125.01-.202 0-.174.048-.607.048-.809 0-.096.02-.115.02-.202l.019-.414c.01-.115.028-.289.028-.414h1.781c.49 0 .346.366.346.751l-.22 3.446c0 .077.009.144 0 .221-.05.433-.05.991-.097 1.415-.029.26.077.597-.5.597v.01zm-11.646 8.97l.115-.568.116-.587c.038-.192.077-.385.115-.587.039-.193.077-.395.126-.577h2.54c0 .163.048.423.048.587.01.288.058.587.068.876.01.192.048.394.048.596 0 .087-.01.26.067.26h6.073c.077 0 .049-.135.068-.327.019-.24.019-.5.048-.741.01-.058 0-.125 0-.183l.067-.934c.02-.173.01-.394.039-.568.029-.182.019-.375.038-.567.01-.058 0-.116.01-.183l.096-1.492c0-.077 0-.125.01-.202.029-.212.048-.549.048-.76h.443c.067 0 .057.086.077.144l.49 2.06.183.76c.193.75.376 1.492.54 2.252l.134.568c.02.067.01.163.077.163h3.821c0-.086-.067-.279-.096-.375l-.395-1.473c-.154-.625-.346-1.241-.5-1.867-.154-.616-.347-1.241-.491-1.857-.03-.125-.077-.25-.106-.375.472 0 .828-.126 1.088-.337a1.83 1.83 0 00.693-1.463l.211-3.369c.02-.106.01-.24.029-.337l.039-.683c0-.077.01-.096.019-.154.01-.067 0-.116.01-.183.028-.163.019-.337.028-.5l.048-.674c.01-.164.01-.356.03-.52l.057-1.02h1.145c0 .318-.048.626-.048.943l-.067.943c-.02.164-.01.318-.02.482l-.067.943c0 .173-.01.337-.029.481l-.23 3.792c-.02.135-.02.337-.03.472 0 .086-.019.115-.019.221l-.308 5.005c-.01.144-.038.317-.038.462l-.058.953c-.02.144-.029.317-.029.48h3.773c.077 0 .048-.105.048-.192 0-.154.039-.308.039-.48l.077-1.194a3.64 3.64 0 00.029-.472c0-.087.019-.125.019-.24 0-.116.019-.145.019-.241 0-.125.01-.347.029-.472.029-.163.01-.327.029-.49.01-.145.029-.309.029-.463l.038-.48c0-.107.01-.145.02-.222l.038-.741c.019-.28.057-.664.067-.943l.048-.963c.01-.144.039-.308.039-.462 0-.164.029-.327.038-.481.01-.337.039-.626.048-.963l.337-5.226c.01-.086.01-.154.01-.25 0-.087.02-.125.02-.24h2.502c-.068-.28-.116-.568-.183-.867l-.26-1.299c-.03-.154-.058-.289-.087-.443-.029-.134-.058-.288-.087-.423-.028-.154-.077-.299-.077-.453h-6.93c-.009.068-.028.116-.047.174-.058.163-.135.346-.173.51h-.039c-.02-.068-.087-.116-.135-.164a1.449 1.449 0 00-.356-.24c-.318-.193-.818-.28-1.242-.28H36.91c0 .26-.039.462-.039.703 0 .077-.01.106-.01.154-.01.067 0 .125-.01.183-.009.096-.018.25-.028.346-.01.058 0 .116 0 .174l-.058.885c-.029.212-.038.79-.057 1.059l-.03.52c0 .182-.038.336-.038.51l-.106 1.578c-.01.289-.057.587-.048.876 0 .289-.038.587-.048.876l-.135 2.079c0 .413-.067.837-.067 1.25h-.02c0-.346-.124-1-.153-1.385l-.03-.231c-.009-.096-.009-.145-.018-.231l-.328-2.762c-.086-.607-.125-1.242-.221-1.839l-.058-.462-.49-4.157c-.02-.174-.04-.116-.405-.116h-3.619l-.654 2.704c-.51 2.031-.982 4.072-1.492 6.112a17.18 17.18 0 00-.164.674l-1.068 4.398-.086.347-.992 4.07c-.01.03-.086.338-.086.338.01.048 0 .028.057.028h3.706v.039z"/></g><defs><clipPath id="aa"><path fill="#fff" transform="translate(.183)" d="M0 0h52.338v21.684H0z"/></clipPath></defs></svg><svg fill="none" viewBox="0 0 145 27" id="logo-icon" xmlns="http://www.w3.org/2000/svg"><path d="M.15 26V1.273h16.37v4.31H5.377v5.892h10.058v4.31H5.377V26H.15zm19.888 0V1.273h9.756c1.867 0 3.46.334 4.78 1.002 1.329.66 2.34 1.598 3.031 2.813.7 1.207 1.05 2.628 1.05 4.262 0 1.642-.353 3.055-1.062 4.238-.708 1.175-1.734 2.077-3.079 2.705-1.336.628-2.954.941-4.853.941h-6.532v-4.201h5.686c.999 0 1.828-.137 2.488-.41.66-.274 1.15-.685 1.473-1.232.33-.548.495-1.228.495-2.04 0-.822-.165-1.514-.495-2.078-.322-.563-.817-.99-1.485-1.28-.66-.297-1.494-.446-2.5-.446h-3.525V26h-5.228zm13.354-11.253L39.537 26h-5.771l-6.013-11.253h5.639zM42.35 26V1.273h16.662v4.31H47.578v5.892h10.577v4.31H47.578v5.905H59.06V26H42.35zM83.851 1.273V26h-4.515L68.578 10.437h-.181V26h-5.228V1.273h4.588l10.673 15.55h.217V1.274h5.204zm26.137 8.657H104.7a5.177 5.177 0 00-.592-1.823 4.638 4.638 0 00-1.147-1.377 5.047 5.047 0 00-1.618-.87 6.182 6.182 0 00-1.968-.301c-1.28 0-2.394.318-3.344.954-.95.628-1.687 1.545-2.21 2.753-.523 1.199-.785 2.656-.785 4.37 0 1.763.262 3.244.785 4.444.532 1.199 1.272 2.104 2.222 2.716.95.612 2.048.918 3.296.918.7 0 1.348-.093 1.944-.278a5.109 5.109 0 001.606-.809c.467-.362.853-.8 1.159-1.316a5.132 5.132 0 00.652-1.763l5.288.024a9.577 9.577 0 01-1.026 3.285 9.858 9.858 0 01-2.186 2.813c-.909.82-1.996 1.473-3.259 1.956-1.256.475-2.677.712-4.263.712-2.205 0-4.177-.499-5.916-1.497-1.73-.998-3.099-2.443-4.105-4.335-.998-1.891-1.497-4.181-1.497-6.87 0-2.696.507-4.99 1.521-6.882 1.014-1.891 2.39-3.332 4.13-4.322C95.124 1.434 97.08.935 99.254.935c1.433 0 2.761.2 3.985.603a10.11 10.11 0 013.272 1.763 9.07 9.07 0 012.318 2.813c.604 1.111.99 2.383 1.159 3.816zM113.737 26V1.273h5.228v10.202h10.613V1.273h5.216V26h-5.216V15.786h-10.613V26h-5.228zm30.595-24.727V26h-5.228V1.273h5.228z" fill="#000"/></svg><svg fill="none" viewBox="0 0 110 110" id="new-icon" xmlns="http://www.w3.org/2000/svg"><circle cx="55" cy="55" r="55" fill="#3D7829"/><path d="M42.117 46.545V64h-3.188l-7.594-10.986h-.128V64h-3.69V46.545h3.239l7.534 10.978h.153V46.545h3.674zM45.166 64V46.545h11.76v3.043h-8.07v4.16h7.466v3.042h-7.466v4.167h8.105V64H45.166zm18.624 0l-4.995-17.455h4.032l2.889 12.128h.145l3.187-12.128H72.5L75.679 58.7h.153l2.89-12.154h4.03L77.76 64h-3.597l-3.324-11.412h-.136L67.386 64H63.79z" fill="#fff"/></svg><svg fill="none" viewBox="0 0 20 38" id="slider-arrow-icon" xmlns="http://www.w3.org/2000/svg"><path d="M19 1L1 19l18 18" stroke="#000"/></svg><svg fill="none" viewBox="0 0 41 40" id="socials-1-icon" xmlns="http://www.w3.org/2000/svg"><rect width="40.026" height="40" rx="20" fill="#3D7829"/><path d="M20.996 27c-7.521 0-11.811-5.255-11.99-14h3.768c.123 6.418 2.9 9.137 5.1 9.698V13h3.549v5.535c2.172-.238 4.455-2.76 5.225-5.535h3.547a10.784 10.784 0 01-1.699 4.003 10.561 10.561 0 01-3.127 2.976 10.9 10.9 0 013.564 2.893A11.148 11.148 0 0131.02 27h-3.905a6.94 6.94 0 00-2.105-3.377 6.732 6.732 0 00-3.587-1.626V27h-.427z" fill="#fff"/></svg><svg fill="none" viewBox="0 0 41 40" id="socials-2-icon" xmlns="http://www.w3.org/2000/svg"><rect x=".923" width="40.026" height="40" rx="20" fill="#3D7829"/><path d="M28.941 12.602l-3.007 15.69s-.421 1.088-1.577.566l-6.939-5.505-.032-.017c.937-.87 8.205-7.633 8.523-7.94.492-.475.186-.757-.385-.399l-10.736 7.056-4.141-1.442s-.652-.24-.715-.762c-.063-.523.736-.805.736-.805l16.885-6.855s1.388-.631 1.388.413z" fill="#fff"/></svg></svg>