<svg width="145" height="27" viewBox="0 0 145 27" fill="none" xmlns="http://www.w3.org/2000/svg">
<path d="M0.149148 26V1.27273H16.5213V5.5831H5.37713V11.4751H15.4347V15.7855H5.37713V26H0.149148ZM20.0378 26V1.27273H29.7935C31.6609 1.27273 33.2547 1.60677 34.5748 2.27486C35.9029 2.9349 36.9131 3.87263 37.6053 5.08807C38.3056 6.29545 38.6557 7.71614 38.6557 9.35014C38.6557 10.9922 38.3016 12.4048 37.5932 13.5881C36.8849 14.7633 35.8586 15.6648 34.5144 16.2926C33.1782 16.9205 31.5603 17.2344 29.6607 17.2344H23.1287V13.0327H28.8155C29.8136 13.0327 30.6427 12.8958 31.3027 12.6222C31.9628 12.3485 32.4538 11.938 32.7757 11.3906C33.1058 10.8433 33.2708 10.1631 33.2708 9.35014C33.2708 8.52912 33.1058 7.83688 32.7757 7.27344C32.4538 6.70999 31.9587 6.28338 31.2907 5.99361C30.6306 5.69579 29.7975 5.54688 28.7914 5.54688H25.2658V26H20.0378ZM33.3915 14.7472L39.5371 26H33.7658L27.753 14.7472H33.3915ZM42.3503 26V1.27273H59.0123V5.5831H47.5783V11.4751H58.155V15.7855H47.5783V21.6896H59.0605V26H42.3503ZM83.8512 1.27273V26H79.3356L68.5778 10.4368H68.3967V26H63.1687V1.27273H67.7567L78.43 16.8239H78.6474V1.27273H83.8512ZM109.988 9.92969H104.7C104.603 9.2455 104.406 8.63778 104.108 8.10653C103.81 7.56723 103.428 7.10843 102.961 6.73011C102.494 6.3518 101.955 6.06203 101.343 5.86079C100.74 5.65956 100.084 5.55895 99.3752 5.55895C98.0953 5.55895 96.9805 5.87689 96.0307 6.51278C95.0809 7.14062 94.3444 8.05824 93.8212 9.26562C93.298 10.465 93.0364 11.9219 93.0364 13.6364C93.0364 15.3991 93.298 16.8802 93.8212 18.0795C94.3525 19.2789 95.093 20.1844 96.0428 20.7962C96.9926 21.4079 98.0913 21.7138 99.339 21.7138C100.039 21.7138 100.687 21.6212 101.283 21.4361C101.887 21.2509 102.422 20.9813 102.889 20.6271C103.356 20.2649 103.742 19.8262 104.048 19.3111C104.362 18.7959 104.579 18.2083 104.7 17.5483L109.988 17.5724C109.851 18.7074 109.509 19.8021 108.962 20.8565C108.423 21.9029 107.694 22.8407 106.776 23.6697C105.867 24.4908 104.78 25.1428 103.517 25.6257C102.261 26.1006 100.84 26.3381 99.2544 26.3381C97.0489 26.3381 95.0769 25.839 93.3382 24.8409C91.6077 23.8428 90.2393 22.398 89.2331 20.5064C88.235 18.6148 87.736 16.3248 87.736 13.6364C87.736 10.9399 88.2431 8.64583 89.2573 6.75426C90.2715 4.86269 91.6479 3.42187 93.3865 2.43182C95.1252 1.43371 97.0811 0.934658 99.2544 0.934658C100.687 0.934658 102.015 1.13589 103.239 1.53835C104.47 1.94081 105.561 2.52841 106.511 3.30113C107.461 4.06581 108.233 5.00355 108.829 6.11435C109.433 7.22514 109.819 8.49692 109.988 9.92969ZM113.737 26V1.27273H118.965V11.4751H129.578V1.27273H134.794V26H129.578V15.7855H118.965V26H113.737ZM144.332 1.27273V26H139.104V1.27273H144.332Z" fill="black"/>
</svg>
