<svg width="110" height="110" viewBox="0 0 110 110" fill="none" xmlns="http://www.w3.org/2000/svg">
<circle cx="55" cy="55" r="55" fill="#3D7829"/>
<path d="M42.1165 46.5455V64H38.929L31.3352 53.0142H31.2074V64H27.517V46.5455H30.7557L38.2898 57.5227H38.4432V46.5455H42.1165ZM45.1655 64V46.5455H56.9268V49.5881H48.8558V53.7472H56.3217V56.7898H48.8558V60.9574H56.9609V64H45.1655ZM63.7898 64L58.7955 46.5455H62.8267L65.7159 58.6733H65.8608L69.0483 46.5455H72.5L75.679 58.6989H75.8324L78.7216 46.5455H82.7528L77.7585 64H74.1619L70.8381 52.5881H70.7017L67.3864 64H63.7898Z" fill="white"/>
</svg>
