<svg width="81" height="81" viewBox="0 0 81 81" fill="none" xmlns="http://www.w3.org/2000/svg">
<circle cx="40.5" cy="40.5" r="40.5" fill="#3D7829"/>
<path d="M9.9968 45V36.2727H11.842V39.8736H15.5877V36.2727H17.4286V45H15.5877V41.3949H11.842V45H9.9968ZM26.9698 40.6364C26.9698 41.5881 26.7894 42.3977 26.4286 43.0653C26.0707 43.733 25.582 44.2429 24.9627 44.5952C24.3462 44.9446 23.6531 45.1193 22.8832 45.1193C22.1076 45.1193 21.4116 44.9432 20.7951 44.5909C20.1786 44.2386 19.6914 43.7287 19.3335 43.0611C18.9755 42.3935 18.7965 41.5852 18.7965 40.6364C18.7965 39.6847 18.9755 38.875 19.3335 38.2074C19.6914 37.5398 20.1786 37.0312 20.7951 36.6818C21.4116 36.3295 22.1076 36.1534 22.8832 36.1534C23.6531 36.1534 24.3462 36.3295 24.9627 36.6818C25.582 37.0312 26.0707 37.5398 26.4286 38.2074C26.7894 38.875 26.9698 39.6847 26.9698 40.6364ZM25.0991 40.6364C25.0991 40.0199 25.0067 39.5 24.8221 39.0767C24.6403 38.6534 24.3832 38.3324 24.0508 38.1136C23.7184 37.8949 23.3292 37.7855 22.8832 37.7855C22.4371 37.7855 22.0479 37.8949 21.7156 38.1136C21.3832 38.3324 21.1246 38.6534 20.94 39.0767C20.7582 39.5 20.6673 40.0199 20.6673 40.6364C20.6673 41.2528 20.7582 41.7727 20.94 42.196C21.1246 42.6193 21.3832 42.9403 21.7156 43.1591C22.0479 43.3778 22.4371 43.4872 22.8832 43.4872C23.3292 43.4872 23.7184 43.3778 24.0508 43.1591C24.3832 42.9403 24.6403 42.6193 24.8221 42.196C25.0067 41.7727 25.0991 41.2528 25.0991 40.6364ZM28.3366 45V36.2727H31.831C32.473 36.2727 33.0085 36.3679 33.4375 36.5582C33.8665 36.7486 34.1889 37.0128 34.4048 37.3509C34.6207 37.6861 34.7287 38.0724 34.7287 38.5099C34.7287 38.8509 34.6605 39.1506 34.5241 39.4091C34.3878 39.6648 34.2003 39.875 33.9616 40.0398C33.7259 40.2017 33.456 40.3168 33.152 40.3849V40.4702C33.4844 40.4844 33.7955 40.5781 34.0852 40.7514C34.3778 40.9247 34.6151 41.1676 34.7969 41.4801C34.9787 41.7898 35.0696 42.1591 35.0696 42.5881C35.0696 43.0511 34.9545 43.4645 34.7244 43.8281C34.4972 44.1889 34.1605 44.4744 33.7145 44.6847C33.2685 44.8949 32.7188 45 32.0653 45H28.3366ZM30.1818 43.4915H31.6861C32.2003 43.4915 32.5753 43.3935 32.8111 43.1974C33.0469 42.9986 33.1648 42.7344 33.1648 42.4048C33.1648 42.1634 33.1065 41.9503 32.9901 41.7656C32.8736 41.581 32.7074 41.4361 32.4915 41.331C32.2784 41.2259 32.0241 41.1733 31.7287 41.1733H30.1818V43.4915ZM30.1818 39.9247H31.5497C31.8026 39.9247 32.027 39.8807 32.223 39.7926C32.4219 39.7017 32.5781 39.5739 32.6918 39.4091C32.8082 39.2443 32.8665 39.0469 32.8665 38.8168C32.8665 38.5014 32.7543 38.2472 32.5298 38.054C32.3082 37.8608 31.9929 37.7642 31.5838 37.7642H30.1818V39.9247ZM36.2702 36.2727H38.1112V41.7614H38.1836L41.9549 36.2727H43.57V45H41.7248V39.5071H41.6609L37.8683 45H36.2702V36.2727ZM45.0945 45V36.2727H46.9396V39.8736H50.6854V36.2727H52.5263V45H50.6854V41.3949H46.9396V45H45.0945ZM59.3274 45L56.5234 41.2798H55.8928V45H54.0476V36.2727H55.8928V39.7585H56.2635L59.1612 36.2727H61.4581L58.0533 40.321L61.6158 45H59.3274ZM64.0479 45H62.0707L65.0835 36.2727H67.4613L70.4698 45H68.4925L66.3065 38.267H66.2383L64.0479 45ZM63.9244 41.5696H68.5948V43.0099H63.9244V41.5696Z" fill="white"/>
</svg>
