<svg width="41" height="40" viewBox="0 0 41 40" fill="none" xmlns="http://www.w3.org/2000/svg">
<rect width="40.0265" height="40" rx="20" fill="#3D7829"/>
<path d="M20.9963 27C13.4748 27 9.18462 21.7447 9.00586 13H12.7735C12.8973 19.4184 15.6749 22.1371 17.8749 22.6977V13H21.4226V18.5355C23.5951 18.2973 25.8777 15.7748 26.6478 13H30.1954C29.9052 14.4391 29.3268 15.8017 28.4963 17.0025C27.6659 18.2033 26.6012 19.2166 25.369 19.979C26.7445 20.6756 27.9594 21.6615 28.9335 22.8717C29.9077 24.082 30.619 25.489 31.0204 27H27.1153C26.7549 25.6876 26.0225 24.5128 25.0098 23.6228C23.9972 22.7328 22.7493 22.1673 21.4226 21.997V27H20.9963V27Z" fill="white"/>
</svg>
