<svg width="175" height="31" viewBox="0 0 175 31" fill="none" xmlns="http://www.w3.org/2000/svg">
<path d="M15.5 0L18.98 10.7102H30.2414L21.1307 17.3295L24.6107 28.0398L15.5 21.4205L6.38933 28.0398L9.8693 17.3295L0.758624 10.7102H12.02L15.5 0Z" fill="#3D7829"/>
<path d="M51.5 0L54.98 10.7102H66.2414L57.1307 17.3295L60.6107 28.0398L51.5 21.4205L42.3893 28.0398L45.8693 17.3295L36.7586 10.7102H48.02L51.5 0Z" fill="#3D7829"/>
<path d="M87.5 0L90.98 10.7102H102.241L93.1307 17.3295L96.6107 28.0398L87.5 21.4205L78.3893 28.0398L81.8693 17.3295L72.7586 10.7102H84.02L87.5 0Z" fill="#3D7829"/>
<path d="M123.5 0L126.98 10.7102H138.241L129.131 17.3295L132.611 28.0398L123.5 21.4205L114.389 28.0398L117.869 17.3295L108.759 10.7102H120.02L123.5 0Z" fill="#3D7829"/>
<path d="M159.5 0L162.98 10.7102H174.241L165.131 17.3295L168.611 28.0398L159.5 21.4205L150.389 28.0398L153.869 17.3295L144.759 10.7102H156.02L159.5 0Z" fill="#3D7829"/>
</svg>
